<svg xmlns="http://www.w3.org/2000/svg" viewBox="0 0 800 340" width="800" height="340" font-family="ui-monospace, SFMono-Regular, Menlo, Consolas, monospace" font-size="14"><rect x="0" y="0" width="800" height="340" fill="#0d1117"/><rect x="528" y="34" width="8" height="17" fill="#3c3836"/><rect x="536" y="34" width="8" height="17" fill="#3c3836"/><rect x="544" y="34" width="8" height="17" fill="#3c3836"/><rect x="552" y="34" width="8" height="17" fill="#3c3836"/><rect x="776" y="34" width="8" height="17" fill="#3c3836"/><rect x="784" y="34" width="8" height="17" fill="#3c3836"/><rect x="40" y="102" width="8" height="17" fill="#3c3836"/><rect x="48" y="102" width="8" height="17" fill="#3c3836"/><rect x="56" y="102" width="8" height="17" fill="#3c3836"/><rect x="64" y="102" width="8" height="17" fill="#3c3836"/><rect x="72" y="102" width="8" height="17" fill="#3c3836"/><rect x="40" y="119" width="8" height="17" fill="#3c3836"/><rect x="48" y="119" width="8" height="17" fill="#3c3836"/><rect x="56" y="119" width="8" height="17" fill="#3c3836"/><rect x="64" y="119" width="8" height="17" fill="#3c3836"/><rect x="72" y="119" width="8" height="17" fill="#3c3836"/><rect x="80" y="119" width="8" height="17" fill="#3c3836"/><rect x="88" y="119" width="8" height="17" fill="#3c3836"/><rect x="96" y="119" width="8" height="17" fill="#3c3836"/><rect x="104" y="119" width="8" height="17" fill="#3c3836"/><rect x="112" y="119" width="8" height="17" fill="#3c3836"/><rect x="120" y="119" width="8" height="17" fill="#3c3836"/><rect x="128" y="119" width="8" height="17" fill="#3c3836"/><rect x="136" y="119" width="8" height="17" fill="#3c3836"/><rect x="40" y="136" width="8" height="17" fill="#3c3836"/><rect x="48" y="136" width="8" height="17" fill="#3c3836"/><rect x="56" y="136" width="8" height="17" fill="#3c3836"/><rect x="64" y="136" width="8" height="17" fill="#3c3836"/><rect x="72" y="136" width="8" height="17" fill="#3c3836"/><rect x="80" y="136" width="8" height="17" fill="#3c3836"/><rect x="88" y="136" width="8" height="17" fill="#3c3836"/><rect x="96" y="136" width="8" height="17" fill="#3c3836"/><rect x="104" y="136" width="8" height="17" fill="#3c3836"/><rect x="112" y="136" width="8" height="17" fill="#3c3836"/><rect x="120" y="136" width="8" height="17" fill="#3c3836"/><text x="0" y="11" xml:space="preserve"><tspan x="0" fill="#d3869b" font-weight="bold"> claux </tspan><tspan x="56" fill="#928374">v20260412.0.0</tspan><tspan x="160" fill="#d0d0d0">                                                                                </tspan></text><text x="0" y="28" xml:space="preserve"><tspan x="0" fill="#928374">│</tspan><tspan x="8" fill="#83a598">● </tspan><tspan x="24" fill="#d3869b" font-weight="bold">claude-sonnet-4-20250514 </tspan><tspan x="224" fill="#d0d0d0">                                                                       </tspan><tspan x="792" fill="#928374">│</tspan></text><text x="0" y="45" xml:space="preserve"><tspan x="0" fill="#928374">│</tspan><tspan x="8" fill="#d0d0d0">  </tspan><tspan x="24" fill="#d5c4a1">This is the entry point for </tspan><tspan x="248" fill="#d5c4a1" font-weight="bold">claux</tspan><tspan x="288" fill="#d5c4a1">. It parses CLI arguments via </tspan><tspan x="528" fill="#8ec07c">clap</tspan><tspan x="560" fill="#d5c4a1">, loads configuration from </tspan><tspan x="776" fill="#8ec07c">~/</tspan><tspan x="792" fill="#928374">│</tspan></text><text x="0" y="62" xml:space="preserve"><tspan x="0" fill="#928374">│</tspan><tspan x="8" fill="#d0d0d0">                                                                                                  </tspan><tspan x="792" fill="#928374">│</tspan></text><text x="0" y="79" xml:space="preserve"><tspan x="0" fill="#928374">│</tspan><tspan x="8" fill="#d0d0d0">  </tspan><tspan x="24" fill="#d5c4a1">Key things:</tspan><tspan x="112" fill="#d0d0d0">                                                                                     </tspan><tspan x="792" fill="#928374">│</tspan></text><text x="0" y="96" xml:space="preserve"><tspan x="0" fill="#928374">│</tspan><tspan x="8" fill="#d0d0d0">                                                                                                  </tspan><tspan x="792" fill="#928374">│</tspan></text><text x="0" y="113" xml:space="preserve"><tspan x="0" fill="#928374">│</tspan><tspan x="8" fill="#d0d0d0">  </tspan><tspan x="24" fill="#928374">• </tspan><tspan x="40" fill="#8ec07c">--tui</tspan><tspan x="80" fill="#d5c4a1"> launches the full-screen Ratatui interface</tspan><tspan x="424" fill="#d0d0d0">                                              </tspan><tspan x="792" fill="#928374">│</tspan></text><text x="0" y="130" xml:space="preserve"><tspan x="0" fill="#928374">│</tspan><tspan x="8" fill="#d0d0d0">  </tspan><tspan x="24" fill="#928374">• </tspan><tspan x="40" fill="#8ec07c">--resume &lt;id&gt;</tspan><tspan x="144" fill="#d5c4a1"> reloads a previous session</tspan><tspan x="360" fill="#d0d0d0">                                                      </tspan><tspan x="792" fill="#928374">│</tspan></text><text x="0" y="147" xml:space="preserve"><tspan x="0" fill="#928374">│</tspan><tspan x="8" fill="#d0d0d0">  </tspan><tspan x="24" fill="#928374">• </tspan><tspan x="40" fill="#8ec07c">-p &lt;prompt&gt;</tspan><tspan x="128" fill="#d5c4a1"> runs a single query and exits</tspan><tspan x="368" fill="#d0d0d0">                                                     </tspan><tspan x="792" fill="#928374">│</tspan></text><text x="0" y="164" xml:space="preserve"><tspan x="0" fill="#928374">│</tspan><tspan x="8" fill="#d0d0d0">                                                                                                  </tspan><tspan x="792" fill="#928374">│</tspan></text><text x="0" y="181" xml:space="preserve"><tspan x="0" fill="#928374">│</tspan><tspan x="8" fill="#d0d0d0">                                                                                                  </tspan><tspan x="792" fill="#928374">│</tspan></text><text x="0" y="198" xml:space="preserve"><tspan x="0" fill="#fabd2f">┌ Permission Required ─────────────────────────────────────────────────────────────────────────────┐</tspan></text><text x="0" y="215" xml:space="preserve"><tspan x="0" fill="#fabd2f">│⚡</tspan><tspan x="16" fill="#d0d0d0"> </tspan><tspan x="24" fill="#fabd2f"> </tspan><tspan x="32" fill="#fabd2f" font-weight="bold">Allow Bash command?</tspan><tspan x="184" fill="#d0d0d0">                                                                            </tspan><tspan x="792" fill="#fabd2f">│</tspan></text><text x="0" y="232" xml:space="preserve"><tspan x="0" fill="#fabd2f">│</tspan><tspan x="8" fill="#d0d0d0">                                                                                                  </tspan><tspan x="792" fill="#fabd2f">│</tspan></text><text x="0" y="249" xml:space="preserve"><tspan x="0" fill="#fabd2f">│</tspan><tspan x="8" fill="#d5c4a1" font-weight="bold">Command:</tspan><tspan x="72" fill="#d0d0d0">                                                                                          </tspan><tspan x="792" fill="#fabd2f">│</tspan></text><text x="0" y="266" xml:space="preserve"><tspan x="0" fill="#fabd2f">│</tspan><tspan x="8" fill="#928374">  cargo test --lib</tspan><tspan x="152" fill="#d0d0d0">                                                                                </tspan><tspan x="792" fill="#fabd2f">│</tspan></text><text x="0" y="283" xml:space="preserve"><tspan x="0" fill="#fabd2f">│</tspan><tspan x="8" fill="#d0d0d0">                                                                                                  </tspan><tspan x="792" fill="#fabd2f">│</tspan></text><text x="0" y="300" xml:space="preserve"><tspan x="0" fill="#fabd2f">│</tspan><tspan x="8" fill="#928374">Working directory: /home/user/dev/claux</tspan><tspan x="320" fill="#d0d0d0">                                                           </tspan><tspan x="792" fill="#fabd2f">│</tspan></text><text x="0" y="317" xml:space="preserve"><tspan x="0" fill="#fabd2f">└──────────────────────────────────────────────────────────────────────────────────────────────────┘</tspan></text><text x="0" y="334" xml:space="preserve"><tspan x="0" fill="#b8bb26"> </tspan><tspan x="8" fill="#928374"> 1.2k tokens </tspan><tspan x="112" fill="#d0d0d0">                                                                                      </tspan></text></svg>